<mxfile host="app.diagrams.net" agent="Mozilla/5.0 (Windows NT 10.0; Win64; x64) AppleWebKit/537.36 (KHTML, like Gecko) Chrome/132.0.0.0 Safari/537.36" version="26.0.11">
  <diagram name="PÃ¡gina-1" id="4tocdNHXQyfJhY8xTT4W">
    <mxGraphModel dx="351" dy="716" grid="1" gridSize="10" guides="1" tooltips="1" connect="1" arrows="1" fold="1" page="1" pageScale="1" pageWidth="827" pageHeight="1169" math="0" shadow="0">
      <root>
        <mxCell id="0" />
        <mxCell id="1" parent="0" />
        <mxCell id="DMMIwIHXWrDCRE8GU1jV-19" style="edgeStyle=orthogonalEdgeStyle;rounded=0;orthogonalLoop=1;jettySize=auto;html=1;exitX=1;exitY=0.5;exitDx=0;exitDy=0;entryX=0;entryY=0.5;entryDx=0;entryDy=0;" parent="1" source="DMMIwIHXWrDCRE8GU1jV-2" target="DMMIwIHXWrDCRE8GU1jV-17" edge="1">
          <mxGeometry relative="1" as="geometry" />
        </mxCell>
        <mxCell id="ftOClTKKyMyCGB8cI5j8-25" style="edgeStyle=orthogonalEdgeStyle;rounded=0;orthogonalLoop=1;jettySize=auto;html=1;exitX=0.75;exitY=0;exitDx=0;exitDy=0;entryX=0;entryY=0.5;entryDx=0;entryDy=0;" edge="1" parent="1" source="DMMIwIHXWrDCRE8GU1jV-2" target="DMMIwIHXWrDCRE8GU1jV-50">
          <mxGeometry relative="1" as="geometry" />
        </mxCell>
        <mxCell id="DMMIwIHXWrDCRE8GU1jV-2" value="socket start" style="rounded=1;whiteSpace=wrap;html=1;" parent="1" vertex="1">
          <mxGeometry x="123" y="545" width="120" height="60" as="geometry" />
        </mxCell>
        <mxCell id="DMMIwIHXWrDCRE8GU1jV-11" value="" style="endArrow=classic;html=1;rounded=0;entryX=0.25;entryY=0;entryDx=0;entryDy=0;dashed=1;" parent="1" edge="1">
          <mxGeometry relative="1" as="geometry">
            <mxPoint x="80" y="490" as="sourcePoint" />
            <mxPoint x="143" y="545" as="targetPoint" />
            <Array as="points">
              <mxPoint x="120" y="490" />
            </Array>
          </mxGeometry>
        </mxCell>
        <mxCell id="DMMIwIHXWrDCRE8GU1jV-12" value="connexion moniteur" style="edgeLabel;resizable=0;html=1;;align=center;verticalAlign=middle;" parent="DMMIwIHXWrDCRE8GU1jV-11" connectable="0" vertex="1">
          <mxGeometry relative="1" as="geometry">
            <mxPoint x="16" y="11" as="offset" />
          </mxGeometry>
        </mxCell>
        <mxCell id="DMMIwIHXWrDCRE8GU1jV-16" value="log error" style="rounded=1;whiteSpace=wrap;html=1;" parent="1" vertex="1">
          <mxGeometry x="550" y="545" width="120" height="60" as="geometry" />
        </mxCell>
        <mxCell id="DMMIwIHXWrDCRE8GU1jV-17" value="server OK" style="rhombus;whiteSpace=wrap;html=1;" parent="1" vertex="1">
          <mxGeometry x="323" y="535" width="80" height="80" as="geometry" />
        </mxCell>
        <mxCell id="DMMIwIHXWrDCRE8GU1jV-20" value="" style="endArrow=classic;html=1;rounded=0;entryX=0;entryY=0.5;entryDx=0;entryDy=0;exitX=1;exitY=0.5;exitDx=0;exitDy=0;" parent="1" source="DMMIwIHXWrDCRE8GU1jV-17" target="DMMIwIHXWrDCRE8GU1jV-16" edge="1">
          <mxGeometry relative="1" as="geometry">
            <mxPoint x="333" y="605" as="sourcePoint" />
            <mxPoint x="503" y="605" as="targetPoint" />
          </mxGeometry>
        </mxCell>
        <mxCell id="DMMIwIHXWrDCRE8GU1jV-21" value="message: text" style="edgeLabel;resizable=0;html=1;;align=center;verticalAlign=middle;" parent="DMMIwIHXWrDCRE8GU1jV-20" connectable="0" vertex="1">
          <mxGeometry relative="1" as="geometry" />
        </mxCell>
        <mxCell id="DMMIwIHXWrDCRE8GU1jV-25" value="&lt;font style=&quot;font-size: 10px;&quot;&gt;false&lt;/font&gt;" style="text;html=1;align=center;verticalAlign=middle;resizable=0;points=[];autosize=1;strokeColor=none;fillColor=none;" parent="1" vertex="1">
          <mxGeometry x="394" y="570" width="40" height="30" as="geometry" />
        </mxCell>
        <mxCell id="DMMIwIHXWrDCRE8GU1jV-30" style="edgeStyle=orthogonalEdgeStyle;rounded=0;orthogonalLoop=1;jettySize=auto;html=1;entryX=0.5;entryY=1;entryDx=0;entryDy=0;" parent="1" source="DMMIwIHXWrDCRE8GU1jV-26" target="DMMIwIHXWrDCRE8GU1jV-17" edge="1">
          <mxGeometry relative="1" as="geometry" />
        </mxCell>
        <mxCell id="DMMIwIHXWrDCRE8GU1jV-26" value="server start" style="rounded=1;whiteSpace=wrap;html=1;" parent="1" vertex="1">
          <mxGeometry x="123" y="695" width="120" height="60" as="geometry" />
        </mxCell>
        <mxCell id="DMMIwIHXWrDCRE8GU1jV-27" value="" style="endArrow=classic;html=1;rounded=0;entryX=0.25;entryY=0;entryDx=0;entryDy=0;dashed=1;" parent="1" target="DMMIwIHXWrDCRE8GU1jV-26" edge="1">
          <mxGeometry relative="1" as="geometry">
            <mxPoint x="80" y="640" as="sourcePoint" />
            <mxPoint x="143" y="675" as="targetPoint" />
            <Array as="points">
              <mxPoint x="120" y="640" />
            </Array>
          </mxGeometry>
        </mxCell>
        <mxCell id="DMMIwIHXWrDCRE8GU1jV-28" value="boot" style="edgeLabel;resizable=0;html=1;;align=center;verticalAlign=middle;" parent="DMMIwIHXWrDCRE8GU1jV-27" connectable="0" vertex="1">
          <mxGeometry relative="1" as="geometry" />
        </mxCell>
        <mxCell id="DMMIwIHXWrDCRE8GU1jV-54" style="edgeStyle=orthogonalEdgeStyle;rounded=0;orthogonalLoop=1;jettySize=auto;html=1;exitX=0.5;exitY=0;exitDx=0;exitDy=0;entryX=0;entryY=0.5;entryDx=0;entryDy=0;" parent="1" source="DMMIwIHXWrDCRE8GU1jV-50" target="ftOClTKKyMyCGB8cI5j8-27" edge="1">
          <mxGeometry relative="1" as="geometry">
            <mxPoint x="240" y="413.5" as="sourcePoint" />
            <mxPoint x="456" y="373.5" as="targetPoint" />
            <Array as="points">
              <mxPoint x="324" y="370" />
            </Array>
          </mxGeometry>
        </mxCell>
        <mxCell id="DMMIwIHXWrDCRE8GU1jV-50" value="Loss of communication?" style="rhombus;whiteSpace=wrap;html=1;" parent="1" vertex="1">
          <mxGeometry x="259" y="410" width="130" height="86.88" as="geometry" />
        </mxCell>
        <mxCell id="ftOClTKKyMyCGB8cI5j8-12" value="Message Reception" style="rounded=1;whiteSpace=wrap;html=1;" vertex="1" parent="1">
          <mxGeometry x="50" y="70" width="120" height="60" as="geometry" />
        </mxCell>
        <mxCell id="ftOClTKKyMyCGB8cI5j8-14" value="" style="endArrow=classic;html=1;rounded=0;entryX=0.25;entryY=0;entryDx=0;entryDy=0;dashed=1;" edge="1" parent="1" target="ftOClTKKyMyCGB8cI5j8-12">
          <mxGeometry relative="1" as="geometry">
            <mxPoint x="50" y="10" as="sourcePoint" />
            <mxPoint x="70" y="70" as="targetPoint" />
          </mxGeometry>
        </mxCell>
        <mxCell id="ftOClTKKyMyCGB8cI5j8-15" value="moniteur message" style="edgeLabel;resizable=0;html=1;;align=center;verticalAlign=middle;" connectable="0" vertex="1" parent="ftOClTKKyMyCGB8cI5j8-14">
          <mxGeometry relative="1" as="geometry" />
        </mxCell>
        <mxCell id="ftOClTKKyMyCGB8cI5j8-20" value="" style="endArrow=none;dashed=1;html=1;strokeWidth=2;rounded=0;entryX=0.25;entryY=1;entryDx=0;entryDy=0;" edge="1" parent="1" target="ftOClTKKyMyCGB8cI5j8-12">
          <mxGeometry width="50" height="50" relative="1" as="geometry">
            <mxPoint x="80" y="640" as="sourcePoint" />
            <mxPoint x="90" y="230" as="targetPoint" />
          </mxGeometry>
        </mxCell>
        <mxCell id="ftOClTKKyMyCGB8cI5j8-22" value="" style="endArrow=classic;html=1;rounded=0;entryX=0.25;entryY=0;entryDx=0;entryDy=0;dashed=1;" edge="1" parent="1" target="DMMIwIHXWrDCRE8GU1jV-16">
          <mxGeometry relative="1" as="geometry">
            <mxPoint x="560" y="500" as="sourcePoint" />
            <mxPoint x="500" y="500" as="targetPoint" />
          </mxGeometry>
        </mxCell>
        <mxCell id="ftOClTKKyMyCGB8cI5j8-23" value="T=&lt;span style=&quot;background-color: light-dark(#ffffff, var(--ge-dark-color, #121212)); color: light-dark(rgb(0, 0, 0), rgb(255, 255, 255));&quot;&gt;10&lt;/span&gt;&lt;span style=&quot;background-color: light-dark(#ffffff, var(--ge-dark-color, #121212)); color: light-dark(rgb(0, 0, 0), rgb(255, 255, 255));&quot;&gt;ms&lt;/span&gt;" style="edgeLabel;resizable=0;html=1;;align=center;verticalAlign=middle;" connectable="0" vertex="1" parent="ftOClTKKyMyCGB8cI5j8-22">
          <mxGeometry relative="1" as="geometry" />
        </mxCell>
        <mxCell id="ftOClTKKyMyCGB8cI5j8-26" value="&lt;font style=&quot;font-size: 10px;&quot;&gt;true&lt;/font&gt;" style="text;html=1;align=center;verticalAlign=middle;resizable=0;points=[];autosize=1;strokeColor=none;fillColor=none;" vertex="1" parent="1">
          <mxGeometry x="323" y="390" width="40" height="30" as="geometry" />
        </mxCell>
        <mxCell id="ftOClTKKyMyCGB8cI5j8-29" style="edgeStyle=orthogonalEdgeStyle;rounded=0;orthogonalLoop=1;jettySize=auto;html=1;" edge="1" parent="1" source="ftOClTKKyMyCGB8cI5j8-27" target="ftOClTKKyMyCGB8cI5j8-28">
          <mxGeometry relative="1" as="geometry" />
        </mxCell>
        <mxCell id="ftOClTKKyMyCGB8cI5j8-27" value="Stop robot" style="rounded=1;whiteSpace=wrap;html=1;" vertex="1" parent="1">
          <mxGeometry x="380" y="340" width="120" height="60" as="geometry" />
        </mxCell>
        <mxCell id="ftOClTKKyMyCGB8cI5j8-28" value="S&lt;span style=&quot;background-color: transparent; color: light-dark(rgb(0, 0, 0), rgb(255, 255, 255));&quot;&gt;top the robot communication&lt;/span&gt;" style="rounded=1;whiteSpace=wrap;html=1;" vertex="1" parent="1">
          <mxGeometry x="530" y="340" width="120" height="60" as="geometry" />
        </mxCell>
      </root>
    </mxGraphModel>
  </diagram>
</mxfile>
